# xmcd
#
# Track frame offsets:
#	150
#	13637
#	27885
#	41768
#	54487
#	71146
#	82894
#	95367
#	109110
#	121682
#	140657
#	152984
#	165796
#	179879
#	199417
#
# Disc length: 3224 seconds
#
# Revision: 2
# Processed by: cddbd v1.5.2PL0 Copyright (c) Steve Scherf et al.
# Submitted via: audiograbber 1.83.01
#
DISCID=c90c960f
DTITLE=KaraokeXtreme - Solid Gold 60's (KX33952)
DYEAR=2005
DGENRE=Karaoke
TTITLE0=Elvis Presley - Burning Love
TTITLE1=Petula Clark - Downtown
TTITLE2=The Spencer Davis Group - Gimme Some Lovin'
TTITLE3=Sam and Dave - Hold On, I'm Coming
TTITLE4=Sonny and Cher - I Got You Babe
TTITLE5=Wilson Pickett - In the Midnight Hour
TTITLE6=Lesley Gore - It's My Party
TTITLE7=The Drifters - This Magic Moment
TTITLE8=The Beatles - Twist and Shout
TTITLE9=Wilson Pickett - Mustang Sally
TTITLE10=Aretha Franklin - Respect
TTITLE11=Otis Redding - Sittin' On the Dock of the Bay
TTITLE12=The Blues Brothers - Soul Man
TTITLE13=Maurice Williams - Stay (Just A Little Bit Longer)
TTITLE14=Data Track - Data Track
EXTD=
EXTT0=
EXTT1=
EXTT2=
EXTT3=
EXTT4=
EXTT5=
EXTT6=
EXTT7=
EXTT8=
EXTT9=
EXTT10=
EXTT11=
EXTT12=
EXTT13=
EXTT14=
PLAYORDER=
